<mxfile host="app.diagrams.net" agent="Mozilla/5.0 (Windows NT 10.0; Win64; x64) AppleWebKit/537.36 (KHTML, like Gecko) Chrome/135.0.0.0 Safari/537.36" version="26.0.16">
  <diagram name="Halaman-1" id="NHpcOJzvK0c3HqVtH23x">
    <mxGraphModel dx="1235" dy="655" grid="1" gridSize="10" guides="1" tooltips="1" connect="1" arrows="1" fold="1" page="1" pageScale="1" pageWidth="1169" pageHeight="827" math="0" shadow="0">
      <root>
        <mxCell id="0" />
        <mxCell id="1" parent="0" />
        <mxCell id="5_8TPESRXED_kmCvS2Go-13" style="edgeStyle=orthogonalEdgeStyle;rounded=0;orthogonalLoop=1;jettySize=auto;html=1;entryX=0.5;entryY=0;entryDx=0;entryDy=0;" edge="1" parent="1" source="5_8TPESRXED_kmCvS2Go-1" target="5_8TPESRXED_kmCvS2Go-2">
          <mxGeometry relative="1" as="geometry" />
        </mxCell>
        <mxCell id="5_8TPESRXED_kmCvS2Go-1" value="User membuka website" style="rounded=0;whiteSpace=wrap;html=1;" vertex="1" parent="1">
          <mxGeometry x="324" y="20" width="180" height="60" as="geometry" />
        </mxCell>
        <mxCell id="5_8TPESRXED_kmCvS2Go-15" style="edgeStyle=orthogonalEdgeStyle;rounded=0;orthogonalLoop=1;jettySize=auto;html=1;exitX=1;exitY=1;exitDx=0;exitDy=0;entryX=0.5;entryY=0;entryDx=0;entryDy=0;" edge="1" parent="1" source="5_8TPESRXED_kmCvS2Go-2" target="5_8TPESRXED_kmCvS2Go-3">
          <mxGeometry relative="1" as="geometry" />
        </mxCell>
        <mxCell id="5_8TPESRXED_kmCvS2Go-2" value="Login" style="rhombus;whiteSpace=wrap;html=1;" vertex="1" parent="1">
          <mxGeometry x="374" y="150" width="80" height="80" as="geometry" />
        </mxCell>
        <mxCell id="5_8TPESRXED_kmCvS2Go-17" style="edgeStyle=orthogonalEdgeStyle;rounded=0;orthogonalLoop=1;jettySize=auto;html=1;entryX=0.75;entryY=0;entryDx=0;entryDy=0;" edge="1" parent="1" source="5_8TPESRXED_kmCvS2Go-3" target="5_8TPESRXED_kmCvS2Go-7">
          <mxGeometry relative="1" as="geometry" />
        </mxCell>
        <mxCell id="5_8TPESRXED_kmCvS2Go-3" value="Form regitser/login" style="rounded=0;whiteSpace=wrap;html=1;" vertex="1" parent="1">
          <mxGeometry x="454" y="280" width="180" height="60" as="geometry" />
        </mxCell>
        <mxCell id="5_8TPESRXED_kmCvS2Go-21" style="edgeStyle=orthogonalEdgeStyle;rounded=0;orthogonalLoop=1;jettySize=auto;html=1;entryX=0.5;entryY=0;entryDx=0;entryDy=0;" edge="1" parent="1" source="5_8TPESRXED_kmCvS2Go-7" target="5_8TPESRXED_kmCvS2Go-8">
          <mxGeometry relative="1" as="geometry" />
        </mxCell>
        <mxCell id="5_8TPESRXED_kmCvS2Go-7" value="Halaman preferensi" style="rounded=0;whiteSpace=wrap;html=1;" vertex="1" parent="1">
          <mxGeometry x="340" y="410" width="160" height="50" as="geometry" />
        </mxCell>
        <mxCell id="5_8TPESRXED_kmCvS2Go-22" style="edgeStyle=orthogonalEdgeStyle;rounded=0;orthogonalLoop=1;jettySize=auto;html=1;entryX=0.5;entryY=0;entryDx=0;entryDy=0;" edge="1" parent="1" source="5_8TPESRXED_kmCvS2Go-8" target="5_8TPESRXED_kmCvS2Go-9">
          <mxGeometry relative="1" as="geometry" />
        </mxCell>
        <mxCell id="5_8TPESRXED_kmCvS2Go-8" value="Pilih kebutuhan:&lt;div&gt;Fotografi/Video/editing dll\&lt;/div&gt;&lt;div&gt;(pilih satu)&lt;/div&gt;" style="rounded=0;whiteSpace=wrap;html=1;" vertex="1" parent="1">
          <mxGeometry x="330" y="515" width="180" height="70" as="geometry" />
        </mxCell>
        <mxCell id="5_8TPESRXED_kmCvS2Go-23" style="edgeStyle=orthogonalEdgeStyle;rounded=0;orthogonalLoop=1;jettySize=auto;html=1;entryX=0.5;entryY=0;entryDx=0;entryDy=0;" edge="1" parent="1" source="5_8TPESRXED_kmCvS2Go-9" target="5_8TPESRXED_kmCvS2Go-10">
          <mxGeometry relative="1" as="geometry" />
        </mxCell>
        <mxCell id="5_8TPESRXED_kmCvS2Go-9" value="Pilih kebutuhan:&lt;div&gt;A year book, Wedding, Company Profile, dll&lt;/div&gt;&lt;div&gt;(pilih satu)&lt;/div&gt;" style="rounded=0;whiteSpace=wrap;html=1;" vertex="1" parent="1">
          <mxGeometry x="297" y="630" width="246" height="90" as="geometry" />
        </mxCell>
        <mxCell id="5_8TPESRXED_kmCvS2Go-24" style="edgeStyle=orthogonalEdgeStyle;rounded=0;orthogonalLoop=1;jettySize=auto;html=1;entryX=0.5;entryY=0;entryDx=0;entryDy=0;" edge="1" parent="1" source="5_8TPESRXED_kmCvS2Go-10" target="5_8TPESRXED_kmCvS2Go-11">
          <mxGeometry relative="1" as="geometry" />
        </mxCell>
        <mxCell id="5_8TPESRXED_kmCvS2Go-10" value="Sistem simpan preferensi" style="rounded=0;whiteSpace=wrap;html=1;" vertex="1" parent="1">
          <mxGeometry x="310.5" y="790" width="219" height="60" as="geometry" />
        </mxCell>
        <mxCell id="5_8TPESRXED_kmCvS2Go-25" style="edgeStyle=orthogonalEdgeStyle;rounded=0;orthogonalLoop=1;jettySize=auto;html=1;entryX=0.5;entryY=0;entryDx=0;entryDy=0;" edge="1" parent="1" source="5_8TPESRXED_kmCvS2Go-11" target="5_8TPESRXED_kmCvS2Go-12">
          <mxGeometry relative="1" as="geometry" />
        </mxCell>
        <mxCell id="5_8TPESRXED_kmCvS2Go-11" value="Halaman home menampilkan tampilan preferensi yang sudah simpan" style="rounded=0;whiteSpace=wrap;html=1;" vertex="1" parent="1">
          <mxGeometry x="310.5" y="920" width="219" height="60" as="geometry" />
        </mxCell>
        <mxCell id="5_8TPESRXED_kmCvS2Go-12" value="Interaksi Lanjut :cari, pesan, review" style="rounded=0;whiteSpace=wrap;html=1;" vertex="1" parent="1">
          <mxGeometry x="310.5" y="1050" width="219" height="60" as="geometry" />
        </mxCell>
        <mxCell id="5_8TPESRXED_kmCvS2Go-16" value="Tidak" style="text;html=1;align=center;verticalAlign=middle;whiteSpace=wrap;rounded=0;" vertex="1" parent="1">
          <mxGeometry x="444" y="230" width="60" height="30" as="geometry" />
        </mxCell>
        <mxCell id="5_8TPESRXED_kmCvS2Go-18" style="edgeStyle=orthogonalEdgeStyle;rounded=0;orthogonalLoop=1;jettySize=auto;html=1;exitX=0;exitY=1;exitDx=0;exitDy=0;entryX=0.048;entryY=-0.052;entryDx=0;entryDy=0;entryPerimeter=0;" edge="1" parent="1" source="5_8TPESRXED_kmCvS2Go-2" target="5_8TPESRXED_kmCvS2Go-7">
          <mxGeometry relative="1" as="geometry" />
        </mxCell>
        <mxCell id="5_8TPESRXED_kmCvS2Go-20" value="Ya" style="text;html=1;align=center;verticalAlign=middle;whiteSpace=wrap;rounded=0;" vertex="1" parent="1">
          <mxGeometry x="330" y="290" width="60" height="30" as="geometry" />
        </mxCell>
      </root>
    </mxGraphModel>
  </diagram>
</mxfile>
